<svg width="32" height="32" viewBox="0 0 32 32" fill="none" xmlns="http://www.w3.org/2000/svg">
<path fill-rule="evenodd" clip-rule="evenodd" d="M3.98823 12.0118L12.6844 3.31559C14.7848 1.21523 18.1753 1.16816 20.3332 3.20938L29.274 11.6669C31.5183 13.7899 31.5677 17.3466 29.3832 19.5311L20.687 28.2273C18.5867 30.3276 15.1961 30.3747 13.0383 28.3335L4.09744 19.876C1.85313 17.753 1.80374 14.1963 3.98823 12.0118ZM9.80388 16.2039C9.44121 15.8412 9.44776 15.2512 9.8184 14.8967L19.522 5.61495C19.5962 5.54405 19.5975 5.42605 19.5249 5.35351L19.4126 5.24122C18.0191 3.8477 15.772 3.80897 14.3313 5.15363L5.96736 12.96C4.45466 14.3718 4.41356 16.7564 5.8767 18.2196L14.3283 26.6712C15.7565 28.0994 18.0721 28.0994 19.5003 26.6712L27.5854 18.586C29.0136 17.1578 29.0136 14.8422 27.5854 13.414L22.0722 7.90073C22.0007 7.82932 21.885 7.82932 21.8136 7.90073L16.4571 13.2571L15.6989 12.4989C15.6413 12.4413 15.5429 12.4821 15.5429 12.5636V19.2378C15.5429 19.3975 15.7331 19.4805 15.8501 19.3718L21.9429 13.7143L22.9356 14.707C23.6497 15.4211 23.6497 16.5789 22.9356 17.293L17.5608 22.6678C17.2037 23.0248 16.6248 23.0248 16.2678 22.6678L9.80388 16.2039Z" fill="url(#paint0_linear_37_14043)"/>
<defs>
<linearGradient id="paint0_linear_37_14043" x1="0.667423" y1="28.7543" x2="45.0311" y2="10.3728" gradientUnits="userSpaceOnUse">
<stop stop-color="#009EE2" stop-opacity="0.9"/>
<stop offset="0.427083" stop-color="#8B2FFF"/>
<stop offset="1" stop-color="#F5054F" stop-opacity="0.9"/>
</linearGradient>
</defs>
</svg>
